<svg width="24" height="24" viewBox="0 0 24 24" fill="none" xmlns="http://www.w3.org/2000/svg">
<rect x="0.25" y="0.25" width="23.5" height="23.5" rx="3.75" fill="#F5F4F4" stroke="#E2E8F0" stroke-width="0.5"/>
<rect width="14" height="14" transform="translate(5 5)" fill="#F5F4F4"/>
<path d="M16.6667 6.16666H10.8334C10.19 6.16666 9.66675 6.68991 9.66675 7.33332V9.66666H7.33341C6.69 9.66666 6.16675 10.1899 6.16675 10.8333V16.6667C6.16675 17.3101 6.69 17.8333 7.33341 17.8333H13.1667C13.8102 17.8333 14.3334 17.3101 14.3334 16.6667V14.3333H16.6667C17.3102 14.3333 17.8334 13.8101 17.8334 13.1667V7.33332C17.8334 6.68991 17.3102 6.16666 16.6667 6.16666ZM7.33341 16.6667V10.8333H13.1667L13.1679 16.6667H7.33341ZM16.6667 13.1667H14.3334V10.8333C14.3334 10.1899 13.8102 9.66666 13.1667 9.66666H10.8334V7.33332H16.6667V13.1667Z" fill="#A6A6A6"/>
</svg>
